<svg xmlns="http://www.w3.org/2000/svg" width="50" height="50" viewBox="0 0 50 50">
    <g fill="none" fill-rule="evenodd">
        <path d="M0 0L50 0 50 50 0 50z"/>
        <path fill="#D7E5F5" fill-rule="nonzero" d="M43.441 37.028L27.364 21.28c1.59-3.98.707-8.653-2.65-11.942-3.534-3.461-8.834-4.153-13.074-2.25l7.597 7.442-5.3 5.193-7.774-7.442c-2.12 4.153-1.237 9.345 2.297 12.807 3.356 3.288 8.127 4.153 12.19 2.596l16.078 15.749c.706.692 1.767.692 2.473 0l4.064-3.98c.883-.693.883-1.904.176-2.424z"/>
    </g>
</svg>
