<svg xmlns="http://www.w3.org/2000/svg" width="50" height="50" viewBox="0 0 50 50">
    <g fill="none">
        <path d="M0 0H50V50H0z"/>
        <path fill="#D7E5F5" d="M38.77 26.755c.07-.563.116-1.147.116-1.755 0-.608-.046-1.192-.139-1.755l3.911-2.97c.348-.27.44-.765.232-1.147l-3.703-6.233c-.232-.405-.718-.54-1.134-.405l-4.606 1.8c-.972-.72-1.99-1.305-3.124-1.755l-.694-4.77c-.07-.45-.463-.765-.926-.765h-7.406c-.463 0-.833.315-.903.765l-.694 4.77c-1.134.45-2.175 1.057-3.124 1.755l-4.606-1.8c-.416-.158-.902 0-1.134.405l-3.703 6.233c-.231.404-.139.877.232 1.147l3.911 2.97c-.093.563-.162 1.17-.162 1.755s.046 1.192.139 1.755l-3.911 2.97c-.348.27-.44.765-.232 1.147l3.703 6.233c.232.405.718.54 1.134.405l4.606-1.8c.972.72 1.99 1.305 3.124 1.755l.694 4.77c.093.45.463.765.926.765h7.406c.463 0 .856-.315.903-.765l.694-4.77c1.134-.45 2.175-1.058 3.124-1.755l4.606 1.8c.416.157.902 0 1.134-.405l3.703-6.232c.231-.405.139-.878-.232-1.148l-3.865-2.97zM25 32.135c-3.819 0-6.943-3.124-6.943-6.942 0-3.819 3.124-6.943 6.943-6.943 3.819 0 6.943 3.124 6.943 6.943 0 3.818-3.124 6.943-6.943 6.943z"/>
    </g>
</svg>
