<svg xmlns="http://www.w3.org/2000/svg" width="26" height="26" viewBox="0 0 26 26">
    <g fill="none">
        <path d="M0 0H26V26H0z"/>
        <path fill="#2471C8" d="M20.104 13.905c.036-.29.06-.592.06-.905 0-.313-.024-.615-.072-.905l2.017-1.533c.18-.139.227-.394.12-.591l-1.91-3.216c-.12-.209-.37-.278-.585-.209l-2.376.929c-.502-.371-1.027-.673-1.612-.905l-.358-2.461c-.036-.232-.239-.395-.478-.395h-3.82c-.239 0-.43.163-.466.395l-.358 2.46c-.585.233-1.122.546-1.612.906l-2.376-.929c-.215-.08-.465 0-.585.21L3.783 9.97c-.12.208-.072.452.12.591l2.017 1.533c-.048.29-.083.603-.083.905 0 .302.023.615.071.905l-2.017 1.533c-.18.139-.227.394-.12.591l1.91 3.216c.12.209.37.278.585.209l2.376-.929c.502.371 1.027.673 1.612.905l.358 2.461c.048.232.239.395.478.395h3.82c.239 0 .442-.163.466-.395l.358-2.46c.585-.233 1.122-.546 1.612-.906l2.376.929c.215.08.465 0 .585-.21l1.91-3.215c.12-.208.072-.452-.12-.591l-1.993-1.533zM13 16.681c-1.97 0-3.582-1.612-3.582-3.582 0-1.97 1.612-3.581 3.582-3.581 1.97 0 3.582 1.612 3.582 3.581 0 1.97-1.612 3.582-3.582 3.582z"/>
    </g>
</svg>
