<svg xmlns="http://www.w3.org/2000/svg" width="26" height="26" viewBox="0 0 26 26">
    <g fill="none" fill-rule="evenodd">
        <path d="M0 0L26 0 26 26 0 26z"/>
        <path fill="#3B3B3B" fill-rule="nonzero" d="M21.764 18.712l-7.434-7.479c.735-1.89.327-4.11-1.225-5.671C11.47 3.918 9.02 3.589 7.059 4.493l3.513 3.534-2.451 2.466L4.526 6.96c-.98 1.973-.571 4.438 1.062 6.082 1.553 1.562 3.758 1.973 5.637 1.233l7.435 7.48c.327.328.817.328 1.144 0l1.879-1.891c.408-.329.408-.904.081-1.15z"/>
    </g>
</svg>
