<svg xmlns="http://www.w3.org/2000/svg" width="26" height="26" viewBox="0 0 26 26">
    <g fill="none">
        <path stroke="#333" stroke-width="2" d="M20.086 15.062v-3.008h0c0-3.625-1.937-6.66-5.315-7.464v-.803c0-.98-.79-1.771-1.771-1.771-.98 0-1.771.791-1.771 1.771v.803c-3.39.803-5.315 3.827-5.315 7.464v3.008c0 1.225-.177 2.444-.525 3.619l-.144.487c-.157.53.145 1.086.674 1.243.093.028.188.041.285.041h13.592c.553 0 1-.447 1-1 0-.096-.013-.191-.04-.284l-.145-.487c-.348-1.175-.525-2.394-.525-3.62z"/>
        <path fill="#333" d="M13 24.52c1.3 0 2.362-1.063 2.362-2.362h-4.724c0 1.3 1.051 2.362 2.362 2.362z"/>
    </g>
</svg>
