<svg xmlns="http://www.w3.org/2000/svg" width="26" height="26" viewBox="0 0 26 26">
    <g fill="none" fill-rule="evenodd">
        <path d="M0 0H26V26H0z" opacity=".217"/>
        <g transform="translate(3 4)">
            <rect width="20" height="15.556" fill="#3B3B3B" stroke="#3B3B3B" rx="1"/>
            <path fill="#3B3B3B" stroke="#3B3B3B" d="M8.889 15.556H11.110999999999999V18.889H8.889z" transform="matrix(1 0 0 -1 0 34.444)"/>
            <path fill="#3B3B3B" stroke="#3B3B3B" d="M0 12.222h20v2.334c0 .552-.448 1-1 1H1c-.552 0-1-.448-1-1v-2.334h0z"/>
            <path stroke="#3B3B3B" d="M5.556 18.889L14.444 18.889"/>
            <g fill="#FFF">
                <path d="M0 4.444H2.222V8.888H0zM4.444 2.222H6.666V8.889H4.444zM8.889 0H11.110999999999999V8.889H8.889z" transform="translate(4.444 3.333)"/>
            </g>
        </g>
    </g>
</svg>
