<svg xmlns="http://www.w3.org/2000/svg" width="20" height="20" viewBox="0 0 20 20">
    <g fill="none" fill-rule="evenodd">
        <path d="M0 0L20 0 20 20 0 20z"/>
        <path fill="#FFF" fill-rule="nonzero" d="M18.927 15.97L11.355 8.7c.748-1.838.332-3.996-1.249-5.514-1.664-1.598-4.16-1.918-6.157-1.039l3.578 3.436L5.031 7.98 1.37 4.543C.37 6.461.787 8.86 2.45 10.457c1.581 1.518 3.828 1.917 5.742 1.198l7.572 7.272c.332.32.832.32 1.165 0l1.913-1.838c.416-.32.416-.879.084-1.119z"/>
        <path fill="#FFF" d="M17.315 6.667L19.167 8.519 8.519 19.167 6.667 17.315z"/>
    </g>
</svg>
