<svg xmlns="http://www.w3.org/2000/svg" width="26" height="26" viewBox="0 0 26 26">
    <g fill="none" fill-rule="evenodd">
        <path d="M0 0H26V26H0z" opacity=".217"/>
        <g transform="translate(3 5)">
            <path fill="#3B3B3B" fill-rule="nonzero" d="M9 10c1.152 0 2.743.225 4.268.674C12.478 11.557 12 12.723 12 14v1c0 1.126.372 2.165 1 3.001L0 18v-3.429C0 11.531 5.996 10 9 10zM8.5 0C10.986 0 13 2.014 13 4.5S10.986 9 8.5 9 4 6.986 4 4.5 6.014 0 8.5 0z"/>
            <rect width="7" height="6" x="14" y="12" fill="#3B3B3B" rx="1"/>
            <rect width="3" height="4" x="16" y="10" stroke="#3B3B3B" rx="1.5"/>
            <rect width="1" height="2" x="17" y="14" fill="#FFF" rx=".5"/>
        </g>
    </g>
</svg>
